<svg id="Layer_1" data-name="Layer 1" xmlns="http://www.w3.org/2000/svg" viewBox="0 0 501.07 106.12"><title>Transcendent.Logo</title><path d="M908.86,446.83a5.73,5.73,0,0,0-2.46-.55,7.16,7.16,0,0,0-3.28.69,4.62,4.62,0,0,0-2,1.91,5.58,5.58,0,0,0-.68,2.75,5.71,5.71,0,0,0,.68,2.79,4.76,4.76,0,0,0,2,1.95,6.91,6.91,0,0,0,3.28.72,10.89,10.89,0,0,0,2.94-.34,11.28,11.28,0,0,0,2-.77V453.7a10,10,0,0,1-4.12,1,3.21,3.21,0,0,1-1.91-.6,2.59,2.59,0,0,1-1-1.56h7.35v-.74a6.12,6.12,0,0,0-.76-3.22A4.52,4.52,0,0,0,908.86,446.83Zm-4.74,3.92a2.23,2.23,0,0,1,.57-1.59,1.91,1.91,0,0,1,1.49-.61,1.75,1.75,0,0,1,1.43.6,2.43,2.43,0,0,1,.49,1.6Z" transform="translate(-894.27 -355.53)" style="fill:#868685"/><polygon points="39.11 90.93 35.07 90.93 33.12 93.77 31.19 90.93 26.65 90.93 30.77 96.25 26.73 101.37 30.77 101.37 32.78 98.41 34.8 101.37 39.35 101.37 35.16 95.89 39.11 90.93" style="fill:#868685"/><path d="M952.48,446.85a4.81,4.81,0,0,0-2.24-.57,4.37,4.37,0,0,0-1.82.32,5.63,5.63,0,0,0-1.22.81v-.94h-3.7v15.18h3.7V456.3a6.29,6.29,0,0,0,1.17.57,4.67,4.67,0,0,0,1.62.22,5.08,5.08,0,0,0,2.23-.46,4.16,4.16,0,0,0,1.56-1.24,5.36,5.36,0,0,0,.91-1.76,6.81,6.81,0,0,0,.3-2,5.86,5.86,0,0,0-.71-3A4.44,4.44,0,0,0,952.48,446.85Zm-2,6.86a1.79,1.79,0,0,1-1.46.73,2.35,2.35,0,0,1-.54-.06,3.68,3.68,0,0,1-.47-.15l-.44-.22-.41-.23v-4a3.77,3.77,0,0,1,.79-.53,2.37,2.37,0,0,1,1.07-.21,2.05,2.05,0,0,1,1,.26,2,2,0,0,1,.77.85,3.58,3.58,0,0,1,.29,1.54A3.18,3.18,0,0,1,950.52,453.71Z" transform="translate(-894.27 -355.53)" style="fill:#868685"/><path d="M973.51,446.83a5.73,5.73,0,0,0-2.46-.55,7.16,7.16,0,0,0-3.28.69,4.62,4.62,0,0,0-2,1.91,5.57,5.57,0,0,0-.67,2.75,5.7,5.7,0,0,0,.67,2.79,4.76,4.76,0,0,0,2,1.95,6.91,6.91,0,0,0,3.28.72,10.89,10.89,0,0,0,2.94-.34,11.41,11.41,0,0,0,2-.77V453.7a10,10,0,0,1-4.13,1,3.18,3.18,0,0,1-1.9-.6,2.6,2.6,0,0,1-1.06-1.56h7.35v-.74a6.12,6.12,0,0,0-.76-3.22A4.52,4.52,0,0,0,973.51,446.83Zm-4.74,3.92a2.23,2.23,0,0,1,.57-1.59,1.92,1.92,0,0,1,1.49-.61,1.75,1.75,0,0,1,1.43.6,2.43,2.43,0,0,1,.5,1.6Z" transform="translate(-894.27 -355.53)" style="fill:#868685"/><path d="M993.62,446.28a2.84,2.84,0,0,0-2.07.89,5.15,5.15,0,0,0-1.23,1.82v-2.52h-3.69V456.9h3.69v-4.49a5.13,5.13,0,0,1,1.09-2,1.93,1.93,0,0,1,1.35-.53,2.51,2.51,0,0,1,1.7.8l1.36-3.7a8.24,8.24,0,0,0-1.11-.56A2.8,2.8,0,0,0,993.62,446.28Z" transform="translate(-894.27 -355.53)" style="fill:#868685"/><path d="M1006,445.4a1.46,1.46,0,0,0,.78.2,1.52,1.52,0,0,0,1.1-.45,1.45,1.45,0,0,0,.46-1.09,1.57,1.57,0,0,0-1.56-1.56,1.47,1.47,0,0,0-1.1.46,1.56,1.56,0,0,0-.24,1.88A1.44,1.44,0,0,0,1006,445.4Z" transform="translate(-894.27 -355.53)" style="fill:#868685"/><rect x="110.63" y="90.93" width="3.7" height="10.44" style="fill:#868685"/><path d="M1027.74,446.83a5.72,5.72,0,0,0-2.45-.55,7.13,7.13,0,0,0-3.28.69,4.65,4.65,0,0,0-2,1.91,5.57,5.57,0,0,0-.67,2.75,5.7,5.7,0,0,0,.67,2.79,4.79,4.79,0,0,0,2,1.95,6.88,6.88,0,0,0,3.28.72,10.89,10.89,0,0,0,2.94-.34,11.61,11.61,0,0,0,2-.77V453.7a10,10,0,0,1-4.12,1,3.21,3.21,0,0,1-1.91-.6,2.65,2.65,0,0,1-1.06-1.56h7.36v-.74a6.12,6.12,0,0,0-.77-3.22A4.52,4.52,0,0,0,1027.74,446.83Zm-4.74,3.92a2.23,2.23,0,0,1,.57-1.59,1.94,1.94,0,0,1,1.49-.61,1.75,1.75,0,0,1,1.43.6,2.43,2.43,0,0,1,.5,1.6Z" transform="translate(-894.27 -355.53)" style="fill:#868685"/><path d="M1048.27,446.28a4.91,4.91,0,0,0-2,.38,5.36,5.36,0,0,0-1.75,1.3v-1.49h-3.69V456.9h3.69v-6.13l.38-.52a5,5,0,0,1,.46-.51,2.21,2.21,0,0,1,.61-.44,1.85,1.85,0,0,1,.8-.17,1.21,1.21,0,0,1,1.23.64,3.7,3.7,0,0,1,.28,1.51v5.62h3.7v-6.13Q1052,446.29,1048.27,446.28Z" transform="translate(-894.27 -355.53)" style="fill:#868685"/><path d="M1068.81,454.16a2.77,2.77,0,0,1-1.17-.27,2.28,2.28,0,0,1-1-.84,2.4,2.4,0,0,1-.38-1.4,2.19,2.19,0,0,1,.76-1.84,2.75,2.75,0,0,1,1.75-.6,10.21,10.21,0,0,1,2.82.58v-2.9a9.54,9.54,0,0,0-1.48-.44,8.71,8.71,0,0,0-1.89-.17,6.53,6.53,0,0,0-2.91.58,4.73,4.73,0,0,0-1.81,1.42,5.48,5.48,0,0,0-.88,1.76,6.09,6.09,0,0,0-.25,1.61,6,6,0,0,0,.25,1.61,5.42,5.42,0,0,0,.88,1.79,4.86,4.86,0,0,0,1.83,1.46,6.47,6.47,0,0,0,2.89.58,8.82,8.82,0,0,0,1.41-.1,10.05,10.05,0,0,0,1.15-.24c.34-.1.66-.21,1-.33v-2.9c-.67.21-1.25.36-1.72.47A5.63,5.63,0,0,1,1068.81,454.16Z" transform="translate(-894.27 -355.53)" style="fill:#868685"/><path d="M1090.19,446.83a5.73,5.73,0,0,0-2.46-.55,7.19,7.19,0,0,0-3.28.69,4.68,4.68,0,0,0-2,1.91,5.57,5.57,0,0,0-.67,2.75,5.7,5.7,0,0,0,.67,2.79,4.82,4.82,0,0,0,2,1.95,6.94,6.94,0,0,0,3.28.72,10.89,10.89,0,0,0,2.94-.34,11.41,11.41,0,0,0,2-.77V453.7a10,10,0,0,1-4.13,1,3.18,3.18,0,0,1-1.9-.6,2.6,2.6,0,0,1-1.06-1.56h7.35v-.74a6.12,6.12,0,0,0-.76-3.22A4.52,4.52,0,0,0,1090.19,446.83Zm-4.74,3.92a2.23,2.23,0,0,1,.57-1.59,1.92,1.92,0,0,1,1.49-.61,1.75,1.75,0,0,1,1.43.6,2.43,2.43,0,0,1,.5,1.6Z" transform="translate(-894.27 -355.53)" style="fill:#868685"/><path d="M1110.67,447.08a4.79,4.79,0,0,0-1.13-.57,5.06,5.06,0,0,0-1.66-.23,4.82,4.82,0,0,0-2.79.78,4.53,4.53,0,0,0-1.67,2,6.63,6.63,0,0,0-.53,2.67,5.86,5.86,0,0,0,.7,3,4.62,4.62,0,0,0,1.81,1.76,4.91,4.91,0,0,0,2.23.56,4.17,4.17,0,0,0,1.8-.32,5.74,5.74,0,0,0,1.24-.81v.94h3.7V442.69h-3.7Zm0,6.5a4.37,4.37,0,0,1-.79.53,2.36,2.36,0,0,1-1.08.21,1.92,1.92,0,0,1-1.42-.63,2.85,2.85,0,0,1-.61-2,3.13,3.13,0,0,1,.58-2,1.76,1.76,0,0,1,1.45-.74,2.24,2.24,0,0,1,.86.15,10.6,10.6,0,0,1,1,.51Z" transform="translate(-894.27 -355.53)" style="fill:#868685"/><path d="M1150.42,448a4.27,4.27,0,0,0-1.57-1.23,5.08,5.08,0,0,0-2.23-.46,5.23,5.23,0,0,0-1.66.24,4,4,0,0,0-1.13.56v-4.39h-3.69V456.9h3.69V456a6.15,6.15,0,0,0,.7.53,3.75,3.75,0,0,0,.93.41,4.61,4.61,0,0,0,1.42.19,4.88,4.88,0,0,0,2.23-.56,4.49,4.49,0,0,0,1.81-1.76,5.86,5.86,0,0,0,.71-3,6.9,6.9,0,0,0-.3-2A5.41,5.41,0,0,0,1150.42,448Zm-3.36,5.79a2.14,2.14,0,0,1-1.36.56,2.63,2.63,0,0,1-1.87-.74v-4a3.59,3.59,0,0,1,1.87-.66,1.82,1.82,0,0,1,1.43.7,3,3,0,0,1,.61,2A2.62,2.62,0,0,1,1147.06,453.76Z" transform="translate(-894.27 -355.53)" style="fill:#868685"/><path d="M1171.64,454.46a2.64,2.64,0,0,1-.1-.86v-4a2.85,2.85,0,0,0-1.15-2.41,5.51,5.51,0,0,0-3.41-.88,9.45,9.45,0,0,0-1.76.16,8.4,8.4,0,0,0-1.67.46,6.93,6.93,0,0,0-1.49.81v2.83a8.16,8.16,0,0,1,1.9-1.38,4.89,4.89,0,0,1,2.24-.53c.69,0,1.13.14,1.34.43a.7.7,0,0,1-.11,1.37c-.13.05-.32.12-.59.2l-1.16.38a14.93,14.93,0,0,0-2.17.83,3.6,3.6,0,0,0-1.31,1,2.55,2.55,0,0,0-.49,1.59,2.85,2.85,0,0,0,.29,1.24,2.17,2.17,0,0,0,1,1,3.66,3.66,0,0,0,1.84.4,5.08,5.08,0,0,0,1.91-.31,5.88,5.88,0,0,0,1.32-.8,1.8,1.8,0,0,0,.51.79,2,2,0,0,0,1.27.32,6,6,0,0,0,1.65-.2q.69-.19,1.5-.51v-1.94a2.3,2.3,0,0,1-.94.3A.4.4,0,0,1,1171.64,454.46Zm-3.8-.08a6.31,6.31,0,0,1-.76.51,1.52,1.52,0,0,1-.75.21,1,1,0,0,1-.71-.28,1,1,0,0,1-.3-.8,1.32,1.32,0,0,1,.61-1.15,10.66,10.66,0,0,1,1.91-1Z" transform="translate(-894.27 -355.53)" style="fill:#868685"/><path d="M1189.55,451.36a10.31,10.31,0,0,0-2-1,4.12,4.12,0,0,1-1.1-.55.62.62,0,0,1-.24-.47.72.72,0,0,1,.23-.49,1.18,1.18,0,0,1,.87-.25,3.86,3.86,0,0,1,1,.13,4.65,4.65,0,0,1,.87.29,5.25,5.25,0,0,1,.59.3l.55.33v-2.56a7,7,0,0,0-1.47-.55,8.82,8.82,0,0,0-1.28-.24c-.34,0-.62-.05-.84-.05a5.32,5.32,0,0,0-2.33.46,3.41,3.41,0,0,0-1.44,1.17,2.65,2.65,0,0,0-.47,1.5,2.57,2.57,0,0,0,.71,1.85,5.22,5.22,0,0,0,1.75,1.21q.82.36,1.32.6a2.53,2.53,0,0,1,.7.46.62.62,0,0,1,.2.45c0,.51-.46.76-1.38.76a3.9,3.9,0,0,1-1.51-.28,12.14,12.14,0,0,1-1.62-.81v2.63a17.06,17.06,0,0,0,2,.6,9.13,9.13,0,0,0,2.06.21,4.68,4.68,0,0,0,3.12-.9,2.92,2.92,0,0,0,1.05-2.33,3,3,0,0,0-.31-1.41A3.17,3.17,0,0,0,1189.55,451.36Z" transform="translate(-894.27 -355.53)" style="fill:#868685"/><path d="M1209.51,446.83a5.65,5.65,0,0,0-2.45-.55,7.13,7.13,0,0,0-3.28.69,4.7,4.7,0,0,0-2,1.91,5.57,5.57,0,0,0-.67,2.75,5.7,5.7,0,0,0,.67,2.79,4.84,4.84,0,0,0,2,1.95,6.88,6.88,0,0,0,3.28.72,10.89,10.89,0,0,0,2.94-.34,11.28,11.28,0,0,0,2-.77V453.7a10,10,0,0,1-4.12,1,3.21,3.21,0,0,1-1.91-.6,2.59,2.59,0,0,1-1-1.56h7.35v-.74a6.12,6.12,0,0,0-.77-3.22A4.52,4.52,0,0,0,1209.51,446.83Zm-4.74,3.92a2.23,2.23,0,0,1,.57-1.59,1.94,1.94,0,0,1,1.49-.61,1.74,1.74,0,0,1,1.43.6,2.38,2.38,0,0,1,.5,1.6Z" transform="translate(-894.27 -355.53)" style="fill:#868685"/><path d="M1230,447.08a4.53,4.53,0,0,0-1.12-.57,5.1,5.1,0,0,0-1.66-.23,4.78,4.78,0,0,0-2.79.78,4.61,4.61,0,0,0-1.68,2,6.8,6.8,0,0,0-.53,2.67,5.86,5.86,0,0,0,.71,3,4.53,4.53,0,0,0,1.8,1.76,4.92,4.92,0,0,0,2.24.56,4.24,4.24,0,0,0,1.8-.32A5.94,5.94,0,0,0,1230,456v.94h3.71V442.69H1230Zm0,6.5a4,4,0,0,1-.79.53,2.34,2.34,0,0,1-1.07.21,1.91,1.91,0,0,1-1.42-.63,2.81,2.81,0,0,1-.61-2,3.13,3.13,0,0,1,.58-2,1.75,1.75,0,0,1,1.45-.74,2.19,2.19,0,0,1,.85.15,9.53,9.53,0,0,1,1,.51Z" transform="translate(-894.27 -355.53)" style="fill:#868685"/><path d="M1264.39,453.92a1,1,0,0,1-.4-.6,4.91,4.91,0,0,1-.07-.95V449h3.53v-2.56h-3.53v-3.13h-.42l-5,5V449h1.68v4.16c0,2.6,1.32,3.9,4,3.9a8,8,0,0,0,1.93-.26,9,9,0,0,0,1.58-.53v-2.88a5.51,5.51,0,0,1-2.32.74A1.75,1.75,0,0,1,1264.39,453.92Z" transform="translate(-894.27 -355.53)" style="fill:#868685"/><path d="M1284.92,446.28a2.84,2.84,0,0,0-2.07.89,5.15,5.15,0,0,0-1.23,1.82v-2.52h-3.69V456.9h3.69v-4.49a5.13,5.13,0,0,1,1.09-2,1.93,1.93,0,0,1,1.35-.53,2.49,2.49,0,0,1,1.7.8l1.37-3.7a8.24,8.24,0,0,0-1.11-.56A2.85,2.85,0,0,0,1284.92,446.28Z" transform="translate(-894.27 -355.53)" style="fill:#868685"/><path d="M1306.11,454.46a2.59,2.59,0,0,1-.11-.86v-4a2.87,2.87,0,0,0-1.14-2.41,5.51,5.51,0,0,0-3.41-.88,9.45,9.45,0,0,0-1.76.16,8.4,8.4,0,0,0-1.67.46,6.7,6.7,0,0,0-1.49.81v2.83a7.76,7.76,0,0,1,1.9-1.38,4.86,4.86,0,0,1,2.24-.53c.68,0,1.13.14,1.33.43a2,2,0,0,1,.31,1.19,2.05,2.05,0,0,1-.41.18c-.13.05-.32.12-.59.2l-1.16.38a15.59,15.59,0,0,0-2.18.83,3.65,3.65,0,0,0-1.3,1,2.49,2.49,0,0,0-.49,1.59,2.84,2.84,0,0,0,.28,1.24,2.25,2.25,0,0,0,1,1,3.64,3.64,0,0,0,1.84.4,5,5,0,0,0,1.9-.31,5.73,5.73,0,0,0,1.33-.8,1.8,1.8,0,0,0,.51.79,1.94,1.94,0,0,0,1.27.32,6.11,6.11,0,0,0,1.65-.2q.69-.19,1.5-.51v-1.94a2.3,2.3,0,0,1-.94.3A.39.39,0,0,1,1306.11,454.46Zm-3.8-.08a6.31,6.31,0,0,1-.76.51,1.53,1.53,0,0,1-.76.21,1,1,0,0,1-.7-.28,1,1,0,0,1-.3-.8,1.34,1.34,0,0,1,.6-1.15,11.2,11.2,0,0,1,1.92-1Z" transform="translate(-894.27 -355.53)" style="fill:#868685"/><polygon points="427.96 96.4 425.8 90.93 421.83 90.93 426.48 101.37 429.2 101.37 433.95 90.93 430.36 90.93 427.96 96.4" style="fill:#868685"/><path d="M1345.77,446.83a5.73,5.73,0,0,0-2.46-.55,7.16,7.16,0,0,0-3.28.69,4.7,4.7,0,0,0-2,1.91,5.68,5.68,0,0,0-.67,2.75,5.81,5.81,0,0,0,.67,2.79,4.84,4.84,0,0,0,2,1.95,6.91,6.91,0,0,0,3.28.72,10.89,10.89,0,0,0,2.94-.34,11.28,11.28,0,0,0,2-.77V453.7a10,10,0,0,1-4.12,1,3.21,3.21,0,0,1-1.91-.6,2.59,2.59,0,0,1-1-1.56h7.35v-.74a6.12,6.12,0,0,0-.77-3.22A4.44,4.44,0,0,0,1345.77,446.83Zm-4.75,3.92a2.23,2.23,0,0,1,.57-1.59,1.94,1.94,0,0,1,1.49-.61,1.77,1.77,0,0,1,1.44.6,2.43,2.43,0,0,1,.49,1.6Z" transform="translate(-894.27 -355.53)" style="fill:#868685"/><rect x="464.82" y="87.16" width="3.7" height="14.21" style="fill:#868685"/><path d="M1391.22,451.07a2.68,2.68,0,0,0,.39-1.39,2.44,2.44,0,0,0-.19-.95,2.74,2.74,0,0,0-.52-.85,2.5,2.5,0,0,0-.79-.61,2.19,2.19,0,0,0-1-.24h-3.51V455h1.71v-2.66h1.15l1.66,2.66H1392l-1.86-3A2.17,2.17,0,0,0,1391.22,451.07Zm-1.55-.55a.91.91,0,0,1-.72.29h-1.66v-2.26h1.62a1,1,0,0,1,.72.28,1.07,1.07,0,0,1,.31.85A1.21,1.21,0,0,1,1389.67,450.52Z" transform="translate(-894.27 -355.53)" style="fill:#868685"/><path d="M1394.82,448.44a6.23,6.23,0,0,0-1.44-2.05,6.82,6.82,0,0,0-2.17-1.36,7.33,7.33,0,0,0-2.71-.5,7.24,7.24,0,0,0-2.7.5,6.52,6.52,0,0,0-2.15,1.36,6,6,0,0,0-1.42,2.05,6.91,6.91,0,0,0,0,5.16,6.22,6.22,0,0,0,1.42,2.07,6.52,6.52,0,0,0,2.15,1.36,7.24,7.24,0,0,0,2.7.5,7.33,7.33,0,0,0,2.71-.5,6.82,6.82,0,0,0,2.17-1.36,6.42,6.42,0,0,0,1.44-2.07,6.66,6.66,0,0,0,0-5.16Zm-1,4.87a5.31,5.31,0,0,1-1.23,1.77,5.62,5.62,0,0,1-1.84,1.15,6.21,6.21,0,0,1-2.29.42,6,6,0,0,1-2.31-.44,5.28,5.28,0,0,1-1.82-1.19,5.57,5.57,0,0,1-1.63-4,5.44,5.44,0,0,1,.43-2.18,5.46,5.46,0,0,1,3-3,6.17,6.17,0,0,1,2.31-.43,6.26,6.26,0,0,1,2.32.43,5.78,5.78,0,0,1,1.84,1.19,5.62,5.62,0,0,1,1.21,1.78,5.5,5.5,0,0,1,.44,2.22A5.63,5.63,0,0,1,1393.86,453.31Z" transform="translate(-894.27 -355.53)" style="fill:#868685"/><text transform="translate(1.29 75.97)" style="font-size:92px;fill:#868685;font-family:FreightBigProMedium-Regular, FreightBig Pro"><tspan style="letter-spacing:-0.0028288468070652175em">t</tspan><tspan x="29.27" y="0.66" style="letter-spacing:0.014170771059782608em">r</tspan><tspan x="63.97" y="0" style="letter-spacing:0.007170304008152174em">a</tspan><tspan x="102.63" y="0.66" style="letter-spacing:0.019170346467391304em">n</tspan><tspan x="150.76" y="0.66" style="letter-spacing:-0.0018310546875em">s</tspan><tspan x="183.34" y="0.66" style="letter-spacing:0.018172554347826088em">c</tspan><tspan x="222.46" y="-0.33" style="letter-spacing:0.017174762228260868em">e</tspan><tspan x="262.95" y="0.66" style="letter-spacing:0.007175611413043478em">n</tspan><tspan x="309.98" y="0" style="letter-spacing:0.00016983695652173913em">d</tspan><tspan x="355.53" y="0" style="letter-spacing:-0.005827530570652174em">e</tspan><tspan x="393.91" y="0" style="letter-spacing:-0.006825322690217391em">n</tspan><tspan x="439.65" y="0">t</tspan></text><path d="M1337.93,374.51h34.43V410a7.83,7.83,0,0,0,2.2-3.64c5.45-16.53,10.89-33.06,16.74-50.84l-53.61,17.9Z" transform="translate(-894.27 -355.53)" style="fill:#868685"/></svg>